<svg xmlns="http://www.w3.org/2000/svg" version="1.1" xmlns:xlink="http://www.w3.org/1999/xlink" xmlns:svgjs="http://svgjs.com/svgjs" width="1440" height="560" preserveAspectRatio="none" viewBox="0 0 1440 560"><g mask="url(&quot;#SvgjsMask1349&quot;)" fill="none"><rect width="1440" height="560" x="0" y="0" fill="url(#SvgjsLinearGradient1350)"></rect><path d="M579.15 455.02L581.32 455.02L581.32 502.29L579.15 502.29z" fill="#037b0b"></path><path d="M462.67 501.65a5.92 5.92 0 1 0-10.12-6.15z" fill="#d3b714"></path><path d="M1201.32 24.13 a15.29 15.29 0 1 0 30.58 0 a15.29 15.29 0 1 0 -30.58 0z" fill="#d3b714"></path><path d="M710.69 497.33L733.94 497.33L733.94 520.58L710.69 520.58z" stroke="#e73635"></path><path d="M19.21 194.7L19.3 194.7L19.3 194.79L19.21 194.79z" fill="#037b0b"></path><path d="M870.27-7.12a20.63 20.63 0 1 0-8.02 40.47z" stroke="#d3b714"></path><path d="M1038.44 257.81L1045.23 257.81L1045.23 264.6L1038.44 264.6z" stroke="#e73635"></path><path d="M214.67 26.88 a19.84 19.84 0 1 0 39.68 0 a19.84 19.84 0 1 0 -39.68 0z" stroke="#d3b714"></path><path d="M437.32 457.09L442.71 457.09L442.71 462.48L437.32 462.48z" fill="#e73635"></path><path d="M896.93 346.54a14.1 14.1 0 1 0-1.91-28.14z" stroke="#037b0b"></path><path d="M939.05 477.8a44.79 44.79 0 1 0-61.15-65.47z" stroke="#037b0b"></path><path d="M1174.35 464.79a44.89 44.89 0 1 0-83.46-33.09z" stroke="#e73635"></path><path d="M893.76 568.73a50.73 50.73 0 1 0 13.55-100.55z" fill="#037b0b"></path><path d="M219.23 277.7 a19.16 19.16 0 1 0 38.32 0 a19.16 19.16 0 1 0 -38.32 0z" stroke="#e73635"></path><path d="M557.73 510.47a47.89 47.89 0 1 0-56.81-77.11z" fill="#d3b714"></path><path d="M1180.64 221.13L1207.46 221.13L1207.46 232.71L1180.64 232.71z" stroke="#d3b714"></path><path d="M1001.6 175.72 a51.28 51.28 0 1 0 102.56 0 a51.28 51.28 0 1 0 -102.56 0z" fill="#d3b714"></path><path d="M280.17 216.63 a38.51 38.51 0 1 0 77.02 0 a38.51 38.51 0 1 0 -77.02 0z" stroke="#037b0b"></path><path d="M145.6 356.82L187.05 356.82L187.05 375.71L145.6 375.71z" fill="#037b0b"></path><path d="M637.76 274.72a35.62 35.62 0 1 0 30.58 64.34z" stroke="#e73635"></path><path d="M101.81 378.35L109.28 378.35L109.28 397.34L101.81 397.34z" fill="#037b0b"></path><path d="M989.61 512.35a51.89 51.89 0 1 0 98.72-32.04z" stroke="#d3b714"></path><path d="M1242.02 526.05L1255.53 526.05L1255.53 539.56L1242.02 539.56z" stroke="#037b0b"></path><path d="M360.9 67.99 a9.84 9.84 0 1 0 19.68 0 a9.84 9.84 0 1 0 -19.68 0z" stroke="#d3b714"></path><path d="M674.19 312.86L715.5 312.86L715.5 354.17L674.19 354.17z" stroke="#037b0b"></path><path d="M1440.44 152.53a26.95 26.95 0 1 0-45.32-29.19z" fill="#e73635"></path><path d="M1203.76 464.32L1243.58 464.32L1243.58 504.14L1203.76 504.14z" fill="#e73635"></path><path d="M723.71 136.01L731.57 136.01L731.57 158.21L723.71 158.21z" stroke="#e73635"></path><path d="M64.89 213.01L91.46 213.01L91.46 223.6L64.89 223.6z" fill="#d3b714"></path><path d="M206.8 476.73a51.95 51.95 0 1 0 89.06 53.5z" fill="#037b0b"></path><path d="M45.26 541.16a54.62 54.62 0 1 0 56.46-93.52z" stroke="#037b0b"></path><path d="M657.77 318.41a5.86 5.86 0 1 0-8.58-7.98z" stroke="#d3b714"></path><path d="M807.01 117.96L859.42 117.96L859.42 173.85L807.01 173.85z" stroke="#e73635"></path></g><defs><mask id="SvgjsMask1349"><rect width="1440" height="560" fill="#ffffff"></rect></mask><linearGradient x1="15.28%" y1="-39.29%" x2="84.72%" y2="139.29%" gradientUnits="userSpaceOnUse" id="SvgjsLinearGradient1350"><stop stop-color="#0e2a47" offset="0"></stop><stop stop-color="rgba(0, 75, 158, 1)" offset="1"></stop></linearGradient></defs></svg>