<svg xmlns="http://www.w3.org/2000/svg" version="1.1" xmlns:xlink="http://www.w3.org/1999/xlink" xmlns:svgjs="http://svgjs.com/svgjs" width="1440" height="560" preserveAspectRatio="none" viewBox="0 0 1440 560"><g mask="url(&quot;#SvgjsMask1101&quot;)" fill="none"><rect width="1440" height="560" x="0" y="0" fill="url(#SvgjsLinearGradient1102)"></rect><path d="M476.77 430.19L478.83 430.19L478.83 483.36L476.77 483.36z" stroke="#d3b714"></path><path d="M397.17 496.71L412.31 496.71L412.31 516.89L397.17 516.89z" stroke="#037b0b"></path><path d="M733.15 447.66a30.91 30.91 0 1 0 24.9-56.58z" fill="#037b0b"></path><path d="M58.79 115.41L70.83 115.41L70.83 127.45L58.79 127.45z" fill="#037b0b"></path><path d="M477.41 94.7a37 37 0 1 0 52.08-52.57z" stroke="#e73635"></path><path d="M1274.53 200.01a39.81 39.81 0 1 0-18.14-77.52z" stroke="#d3b714"></path><path d="M627.68 243.67L647.64 243.67L647.64 284.2L627.68 284.2z" fill="#037b0b"></path><path d="M1361.71 217.17 a7.29 7.29 0 1 0 14.58 0 a7.29 7.29 0 1 0 -14.58 0z" fill="#d3b714"></path><path d="M916.87 6.4L970.22 6.4L970.22 14.33L916.87 14.33z" stroke="#037b0b"></path><path d="M370.75 78.65L416.36 78.65L416.36 124.26L370.75 124.26z" fill="#037b0b"></path><path d="M733.58 26.49L782.03 26.49L782.03 74.94L733.58 74.94z" stroke="#d3b714"></path><path d="M1009.24 439.64L1057.09 439.64L1057.09 445.34L1009.24 445.34z" fill="#e73635"></path><path d="M1066.23 325.51 a20.09 20.09 0 1 0 40.18 0 a20.09 20.09 0 1 0 -40.18 0z" stroke="#037b0b"></path><path d="M871.88 162.98a26.96 26.96 0 1 0 40.48-35.62z" stroke="#e73635"></path><path d="M609.72 304.4L659.72 304.4L659.72 354.4L609.72 354.4z" stroke="#e73635"></path><path d="M502.33 10.03 a49.67 49.67 0 1 0 99.34 0 a49.67 49.67 0 1 0 -99.34 0z" stroke="#d3b714"></path><path d="M1436.82 516.09L1447.25 516.09L1447.25 526.52L1436.82 526.52z" stroke="#d3b714"></path><path d="M832.02 262.72 a53.59 53.59 0 1 0 107.18 0 a53.59 53.59 0 1 0 -107.18 0z" stroke="#037b0b"></path><path d="M4.28 352.15a2.98 2.98 0 1 0-5.79 1.43z" stroke="#d3b714"></path><path d="M1253.27 256.23L1295.89 256.23L1295.89 298.85L1253.27 298.85z" stroke="#037b0b"></path><path d="M707.45 149.86 a51.12 51.12 0 1 0 102.24 0 a51.12 51.12 0 1 0 -102.24 0z" stroke="#037b0b"></path><path d="M914.61 110.57a48.53 48.53 0 1 0 67.22-70.02z" stroke="#037b0b"></path><path d="M506.15 203.66L537.4 203.66L537.4 234.91L506.15 234.91z" stroke="#e73635"></path><path d="M1179.96 145.1 a55.86 55.86 0 1 0 111.72 0 a55.86 55.86 0 1 0 -111.72 0z" stroke="#d3b714"></path><path d="M1264.54 485.57L1319.55 485.57L1319.55 539.98L1264.54 539.98z" stroke="#037b0b"></path><path d="M1336.49 162.73 a30.08 30.08 0 1 0 60.16 0 a30.08 30.08 0 1 0 -60.16 0z" stroke="#e73635"></path><path d="M454.77 469.45L480.88 469.45L480.88 495.56L454.77 495.56z" stroke="#037b0b"></path><path d="M80.79 416.39L126.14 416.39L126.14 461.74L80.79 461.74z" fill="#037b0b"></path><path d="M777.06 508.47 a15.88 15.88 0 1 0 31.76 0 a15.88 15.88 0 1 0 -31.76 0z" stroke="#037b0b"></path><path d="M522.34 466.94L566.2 466.94L566.2 510.8L522.34 510.8z" fill="#d3b714"></path><path d="M935.05 369.62 a54 54 0 1 0 108 0 a54 54 0 1 0 -108 0z" stroke="#037b0b"></path><path d="M1323.83 414.88a4.92 4.92 0 1 0-2.38 9.55z" fill="#d3b714"></path><path d="M199.42 272.63 a32.65 32.65 0 1 0 65.3 0 a32.65 32.65 0 1 0 -65.3 0z" stroke="#d3b714"></path></g><defs><mask id="SvgjsMask1101"><rect width="1440" height="560" fill="#ffffff"></rect></mask><linearGradient x1="15.28%" y1="-39.29%" x2="84.72%" y2="139.29%" gradientUnits="userSpaceOnUse" id="SvgjsLinearGradient1102"><stop stop-color="#0e2a47" offset="0"></stop><stop stop-color="rgba(158, 0, 0, 1)" offset="1"></stop></linearGradient></defs></svg>